<?xml version="1.0" encoding="UTF-8"?>
<!DOCTYPE svg PUBLIC "-//W3C//DTD SVG 1.1//EN" "http://www.w3.org/Graphics/SVG/1.1/DTD/svg11.dtd">
<svg xmlns="http://www.w3.org/2000/svg" xmlns:xlink="http://www.w3.org/1999/xlink" version="1.1" width="352px" height="132px" viewBox="-0.5 -0.5 352 132"><defs/><g><path d="M 40 10 L 80 70 L 40 130 L 0 70 Z" fill="rgb(255, 255, 255)" stroke="rgb(0, 0, 0)" stroke-miterlimit="10" pointer-events="all"/><path d="M 40 0 L 80 60 L 40 120 L 0 60 Z" fill="none" stroke="rgb(0, 0, 0)" stroke-miterlimit="10" pointer-events="all"/><path d="M 175.5 10 L 215.5 70 L 175.5 130 L 135.5 70 Z" fill="rgb(255, 255, 255)" stroke="rgb(0, 0, 0)" stroke-miterlimit="10" pointer-events="all"/><path d="M 175.5 0 L 215.5 60 L 175.5 120 L 135.5 60 Z" fill="rgb(255, 255, 255)" stroke="rgb(0, 0, 0)" stroke-miterlimit="10" pointer-events="all"/><path d="M 310.5 10 L 350.5 70 L 310.5 130 L 270.5 70 Z" fill="rgb(255, 255, 255)" stroke="rgb(0, 0, 0)" stroke-miterlimit="10" pointer-events="all"/><path d="M 310.5 0 L 350.5 60 L 310.5 120 L 270.5 60 Z" fill="rgb(255, 255, 255)" stroke="rgb(0, 0, 0)" stroke-miterlimit="10" pointer-events="all"/><path d="M 40 10 L 77.5 65 L 40 120 L 2.5 65 Z" fill="#ffcd38" stroke="#3700cc" stroke-miterlimit="10" pointer-events="all"/><path d="M 175.5 10 L 213 65 L 175.5 120 L 138 65 Z" fill="#ffcd38" stroke="#3700cc" stroke-miterlimit="10" pointer-events="all"/><path d="M 310.5 10 L 348 65 L 310.5 120 L 273 65 Z" fill="#ffcd38" stroke="#3700cc" stroke-miterlimit="10" pointer-events="all"/></g></svg>